<svg width="30" height="30" viewBox="0 0 30 30" fill="none" xmlns="http://www.w3.org/2000/svg">
<path d="M28.8462 7.92453C27.0108 7.92249 25.2512 7.20621 23.9534 5.93282C22.6556 4.65942 21.9256 2.93292 21.9235 1.13208C21.9235 0.983408 21.8936 0.836195 21.8357 0.698844C21.7777 0.561492 21.6927 0.436691 21.5856 0.331568C21.4784 0.226444 21.3512 0.143056 21.2112 0.0861654C21.0712 0.0292748 20.9212 -4.27391e-06 20.7697 4.67936e-10H15.0007C14.8492 -4.27391e-06 14.6992 0.0292748 14.5592 0.0861654C14.4192 0.143056 14.292 0.226444 14.1849 0.331568C14.0777 0.436691 13.9928 0.561492 13.9348 0.698844C13.8768 0.836195 13.847 0.983408 13.847 1.13208V19.2453C13.8468 19.7517 13.7081 20.2489 13.4453 20.6848C13.1826 21.1208 12.8055 21.4796 12.3532 21.7238C11.901 21.968 11.3903 22.0886 10.8743 22.0732C10.3584 22.0577 9.85615 21.9066 9.41997 21.6358C8.9838 21.365 8.62968 20.9842 8.39458 20.5333C8.15947 20.0825 8.05199 19.5779 8.08334 19.0724C8.11469 18.5669 8.28373 18.0788 8.57281 17.6593C8.8619 17.2397 9.26044 16.9039 9.72687 16.6869C9.92398 16.595 10.0905 16.4502 10.2071 16.2692C10.3237 16.0882 10.3855 15.8785 10.3855 15.6644L10.3856 9.77203C10.3856 9.60656 10.3486 9.4431 10.2773 9.29316C10.206 9.14321 10.102 9.01044 9.97272 8.90419C9.84344 8.79793 9.69199 8.72078 9.52904 8.67815C9.36608 8.63553 9.19558 8.62848 9.02955 8.6575C6.97685 9.01816 5.07159 9.94584 3.53738 11.3317C2.00317 12.7175 0.903668 14.504 0.367923 16.4814C-0.167821 18.4588 -0.11758 20.5452 0.512751 22.4956C1.14308 24.446 2.32735 26.1795 3.92655 27.4926C5.52576 28.8058 7.47355 29.6442 9.54132 29.9093C11.6091 30.1744 13.711 29.8554 15.6005 28.9895C17.4899 28.1236 19.0884 26.7469 20.2084 25.021C21.3284 23.295 21.9233 21.2914 21.9235 19.2453L21.9234 14.1923C24.0605 15.2858 26.436 15.8542 28.8462 15.8491C28.9977 15.8491 29.1478 15.8198 29.2878 15.7629C29.4277 15.706 29.5549 15.6226 29.6621 15.5175C29.7692 15.4124 29.8542 15.2876 29.9122 15.1502C29.9702 15.0129 30 14.8656 30 14.717V9.0566C30 8.90793 29.9702 8.76072 29.9122 8.62337C29.8542 8.48602 29.7692 8.36122 29.6621 8.25609C29.5549 8.15097 29.4277 8.06758 29.2878 8.01069C29.1478 7.9538 28.9977 7.92452 28.8462 7.92453ZM27.6924 13.5345C25.4377 13.338 23.2788 12.5482 21.4434 11.2484C21.2711 11.1267 21.0678 11.0541 20.8561 11.0385C20.6444 11.0229 20.4323 11.0649 20.2434 11.1599C20.0544 11.2549 19.8959 11.3992 19.7851 11.577C19.6744 11.7548 19.6158 11.9591 19.6158 12.1674L19.6159 19.2453C19.6151 20.8017 19.1782 22.3279 18.3531 23.6572C17.528 24.9865 16.3464 26.0677 14.9374 26.7826C13.5284 27.4975 11.9463 27.8187 10.3638 27.711C8.78135 27.6034 7.25951 27.071 5.96458 26.172C4.66965 25.2731 3.65146 24.0422 3.02127 22.6139C2.39108 21.1856 2.17315 19.6148 2.39128 18.0732C2.60942 16.5316 3.25523 15.0785 4.25814 13.8726C5.26105 12.6668 6.58248 11.7546 8.07802 11.2358L8.07794 15.0097C7.33214 15.4986 6.72817 16.1689 6.3249 16.955C5.92162 17.7411 5.7328 18.6164 5.77683 19.4954C5.82086 20.3744 6.09624 21.2273 6.57614 21.9708C7.05603 22.7144 7.72407 23.3233 8.51515 23.7381C9.30622 24.153 10.1933 24.3597 11.0901 24.3381C11.9868 24.3165 12.8625 24.0673 13.6318 23.6148C14.4012 23.1623 15.038 22.522 15.4801 21.7562C15.9222 20.9905 16.1545 20.1254 16.1545 19.2453V2.26415H19.6877C19.9471 4.25825 20.8739 6.11143 22.3226 7.53292C23.7713 8.9544 25.6601 9.86374 27.6924 10.1183V13.5345Z" fill="white"/>
</svg>
