<svg width="60" height="60" viewBox="0 0 60 60" fill="none" xmlns="http://www.w3.org/2000/svg">
<rect width="60" height="60" rx="4" fill="black"/>
<path d="M37.96 42.8582C33.8278 38.2512 29.7061 33.6571 25.5543 29.0287C24.8281 29.8633 24.1162 30.6994 23.3861 31.514C22.5518 32.4446 21.6903 33.3479 20.8586 34.2813C19.8422 35.4223 18.8452 36.5862 17.8366 37.7358C16.841 38.8697 15.8414 39.9992 14.8445 41.1302C14.4176 41.6141 13.9972 42.1037 13.5599 42.5747C13.4923 42.6477 13.3192 42.705 13.2528 42.6621C13.0823 42.5518 12.9339 42.3915 12.8012 42.2268C12.7686 42.1868 12.8038 42.0264 12.8532 41.9706C13.9933 40.6821 15.1425 39.4008 16.2865 38.1152C17.1741 37.1174 18.063 36.1195 18.9428 35.1131C19.5858 34.3772 20.2066 33.6171 20.8534 32.8855C21.8842 31.7202 22.928 30.572 23.9665 29.4152C24.2346 29.116 24.4975 28.8125 24.7656 28.5147C24.888 28.3802 24.888 28.2699 24.7604 28.1296C23.8989 27.1776 23.0425 26.2213 22.1874 25.2635C21.4664 24.4561 20.7532 23.6415 20.0309 22.8355C19.4114 22.144 18.7815 21.464 18.162 20.774C17.5984 20.1469 17.0453 19.5113 16.4818 18.8842C15.8609 18.1942 15.2323 17.5113 14.6089 16.8241C14.0089 16.1627 13.4077 15.5041 12.8181 14.8327C12.7296 14.7325 12.6632 14.565 12.8259 14.4376C12.8493 14.419 12.8702 14.3975 12.8897 14.376C13.3426 13.8793 13.3244 13.8964 13.7526 14.4548C14.0974 14.9029 14.4931 15.3052 14.8679 15.7232C15.5538 16.4891 16.2397 17.255 16.9308 18.0166C17.5607 18.711 18.2036 19.391 18.8296 20.0896C19.5506 20.8942 20.2586 21.7145 20.9757 22.5248C21.5224 23.1433 22.0729 23.7575 22.626 24.3702C23.1453 24.9471 23.6724 25.5169 24.1904 26.0939C24.5886 26.5377 24.9778 26.9915 25.3773 27.4324C25.5062 27.5742 25.6116 27.7145 25.8264 27.4668C26.8194 26.3201 27.8462 25.2091 28.8484 24.071C29.8948 22.8827 30.9229 21.673 31.968 20.4833C32.6734 19.6816 33.3996 18.9014 34.1115 18.104C34.8911 17.2307 35.6629 16.3502 36.4399 15.4755C36.8707 14.9902 37.3015 14.502 37.7453 14.0324C37.7934 13.9823 37.9717 13.9924 38.0225 14.0482C38.7383 14.8384 39.4359 15.6487 40.1517 16.4404C40.9846 17.361 41.8371 18.26 42.6701 19.182C43.3403 19.925 43.9898 20.6909 44.6561 21.4382C45.3732 22.2414 46.0994 23.0316 46.8205 23.829C47.4933 24.5735 48.1649 25.3194 48.8365 26.0652C49.3974 26.6894 49.9596 27.3122 50.5154 27.9421C50.6156 28.0566 50.7574 28.2069 50.7522 28.3329C50.7444 28.5076 50.6455 28.7094 50.531 28.8412C49.6941 29.8018 48.8482 30.7509 47.9983 31.6972C47.1862 32.6006 46.3663 33.4925 45.5515 34.3916C44.9568 35.0472 44.3646 35.7072 43.7724 36.3658C42.9121 37.325 42.0558 38.287 41.1929 39.2433C40.3456 40.1825 39.4893 41.113 38.642 42.0508C38.4129 42.3056 38.1995 42.5747 37.96 42.8582ZM37.9405 41.4437C38.9582 40.3256 39.9513 39.2491 40.9287 38.1582C41.8696 37.1074 42.7872 36.0293 43.7308 34.98C44.8826 33.6972 46.0552 32.4388 47.2096 31.159C47.9384 30.3501 48.649 29.5212 49.3701 28.7023C49.6473 28.3873 49.6577 28.2699 49.413 28.0122C48.9132 27.4868 48.407 26.9672 47.9124 26.436C47.4842 25.9765 47.0664 25.5055 46.6448 25.0388C45.9901 24.3144 45.3342 23.5914 44.6834 22.8613C43.9806 22.0724 43.2896 21.2707 42.5816 20.4862C41.7864 19.6058 40.9703 18.7468 40.1751 17.8663C39.4749 17.0918 38.7852 16.3044 38.0993 15.5127C37.9444 15.3338 37.8377 15.3352 37.6828 15.5084C36.6234 16.7038 35.5575 17.8921 34.4968 19.0861C33.4114 20.3072 32.3311 21.5356 31.2444 22.7568C30.3164 23.799 29.3781 24.8312 28.4488 25.872C27.7773 26.625 27.1213 27.3938 26.4419 28.1382C26.2389 28.3616 26.3027 28.5004 26.468 28.6808C27.3647 29.6615 28.2601 30.6421 29.149 31.6314C29.9 32.466 30.6405 33.3136 31.3889 34.1511C32.1502 35.0043 32.9155 35.8547 33.6795 36.7065C34.4812 37.5998 35.2816 38.4946 36.0846 39.3879C36.6976 40.0708 37.3119 40.7494 37.9405 41.4437Z" fill="white"/>
</svg>
